<svg width="9500" height="2038" viewBox="0 0 9500 2038" fill="none" xmlns="http://www.w3.org/2000/svg">
<path d="M2989.05 240.852C2990.84 240.219 2992.87 239.906 2995.14 239.911L2994.66 267.97C2992.43 267.865 2990.44 267.449 2988.71 266.723C2986.95 265.996 2985.47 265.008 2984.27 263.76C2983.04 262.545 2982.11 261.085 2981.48 259.383C2980.85 257.68 2980.56 255.784 2980.59 253.694C2980.63 251.572 2980.99 249.654 2981.68 247.94C2982.33 246.26 2983.28 244.816 2984.51 243.61C2985.75 242.437 2987.26 241.518 2989.05 240.852Z" fill="black"/>
<path d="M3154.22 260.314C3151.55 259.96 3149.26 259.909 3147.37 260.161C3145.48 260.446 3143.93 260.961 3142.74 261.707C3141.52 262.448 3140.6 263.364 3140 264.455C3139.36 265.542 3138.96 266.71 3138.79 267.96C3138.63 269.209 3138.72 270.442 3139.06 271.658C3139.37 272.869 3140.02 273.976 3141.02 274.978C3141.98 276.008 3143.34 276.907 3145.1 277.675C3146.85 278.442 3149.07 279.003 3151.75 279.356L3154.73 279.751L3157.26 260.715L3154.22 260.314Z" fill="black"/>
<path d="M3158.48 227.556C3155.58 227.172 3153.09 227.161 3151.02 227.523C3148.95 227.885 3147.22 228.527 3145.84 229.448C3144.46 230.37 3143.4 231.518 3142.66 232.891C3141.91 234.298 3141.43 235.84 3141.21 237.517C3141.02 238.997 3141.12 240.483 3141.53 241.975C3141.93 243.467 3142.65 244.833 3143.68 246.074C3144.68 247.343 3145.98 248.419 3147.59 249.3C3149.2 250.215 3151.11 250.819 3153.33 251.113L3158.42 251.785L3161.51 227.957L3158.48 227.556Z" fill="black"/>
<path d="M3440.89 358.113C3439.05 356.77 3437.23 355.829 3435.41 355.289C3433.57 354.775 3431.81 354.63 3430.13 354.852C3428.42 355.101 3426.82 355.715 3425.31 356.694C3423.76 357.679 3422.36 359.022 3421.1 360.723C3419.86 362.398 3419 364.111 3418.52 365.864C3418.05 367.616 3417.96 369.348 3418.25 371.059C3418.5 372.777 3419.13 374.45 3420.14 376.08C3421.12 377.69 3422.49 379.196 3424.24 380.599L3440.89 358.113Z" fill="black"/>
<path d="M3533.54 474.495C3532.09 472.199 3530.66 470.401 3529.26 469.1C3527.83 467.818 3526.44 466.954 3525.11 466.511C3523.76 466.04 3522.48 465.92 3521.26 466.151C3520.02 466.353 3518.88 466.793 3517.82 467.469C3516.77 468.145 3515.89 469.005 3515.18 470.048C3514.45 471.062 3514.03 472.277 3513.91 473.691C3513.74 475.096 3513.93 476.724 3514.48 478.576C3515.02 480.429 3516.01 482.502 3517.46 484.798L3519.08 487.359L3535.18 477.098L3533.54 474.495Z" fill="black"/>
<path d="M3561.19 456.771C3559.62 454.28 3558.03 452.349 3556.43 450.98C3554.82 449.61 3553.23 448.687 3551.64 448.211C3550.05 447.734 3548.5 447.649 3546.98 447.957C3545.43 448.281 3543.95 448.898 3542.53 449.805C3541.28 450.606 3540.22 451.641 3539.34 452.91C3538.47 454.179 3537.89 455.611 3537.61 457.206C3537.28 458.791 3537.3 460.489 3537.66 462.301C3538 464.13 3538.76 465.996 3539.96 467.9L3542.72 472.267L3562.83 459.374L3561.19 456.771Z" fill="black"/>
<path d="M3633.79 765.976C3633.48 763.709 3632.88 761.728 3632.01 760.033C3631.1 758.342 3629.99 756.962 3628.66 755.892C3627.3 754.827 3625.75 754.086 3624.01 753.671C3622.23 753.227 3620.29 753.136 3618.21 753.4C3616.15 753.659 3614.33 754.223 3612.75 755.091C3611.16 755.959 3609.86 757.093 3608.84 758.492C3607.78 759.862 3607.02 761.479 3606.56 763.343C3606.09 765.174 3605.96 767.212 3606.17 769.459L3633.79 765.976Z" fill="black"/>
<path d="M3635.77 928.389C3635.71 925.67 3635.42 923.387 3634.88 921.54C3634.32 919.695 3633.58 918.234 3632.67 917.159C3631.76 916.05 3630.72 915.276 3629.56 914.837C3628.4 914.364 3627.19 914.141 3625.94 914.168C3624.69 914.195 3623.5 914.469 3622.36 914.992C3621.22 915.481 3620.23 916.298 3619.4 917.444C3618.53 918.557 3617.86 920.048 3617.37 921.917C3616.88 923.785 3616.67 926.079 3616.73 928.799L3616.79 931.833L3635.83 931.473L3635.77 928.389Z" fill="black"/>
<path d="M3668.53 927.685C3668.47 924.733 3668.1 922.253 3667.43 920.243C3666.77 918.234 3665.88 916.611 3664.76 915.374C3663.65 914.137 3662.37 913.252 3660.91 912.719C3659.41 912.187 3657.83 911.94 3656.15 911.976C3654.67 912.007 3653.23 912.337 3651.83 912.964C3650.43 913.592 3649.2 914.514 3648.14 915.731C3647.04 916.916 3646.19 918.378 3645.56 920.116C3644.91 921.856 3644.61 923.853 3644.65 926.108L3644.76 931.281L3668.59 930.769L3668.53 927.685Z" fill="black"/>
<path d="M2712.38 1850.96C2710.59 1851.6 2708.57 1851.91 2706.29 1851.9L2706.77 1823.84C2709.01 1823.95 2710.99 1824.36 2712.72 1825.09C2714.49 1825.82 2715.97 1826.81 2717.16 1828.05C2718.39 1829.27 2719.32 1830.73 2719.95 1832.43C2720.58 1834.13 2720.88 1836.03 2720.84 1838.12C2720.81 1840.24 2720.44 1842.16 2719.76 1843.87C2719.1 1845.55 2718.16 1847 2716.92 1848.2C2715.68 1849.38 2714.17 1850.3 2712.38 1850.96Z" fill="black"/>
<path d="M2554.06 1831.65C2552.17 1831.9 2549.89 1831.85 2547.21 1831.5L2544.18 1831.1L2546.7 1812.06L2549.69 1812.46C2552.36 1812.81 2554.58 1813.37 2556.34 1814.14C2558.1 1814.91 2559.45 1815.81 2560.42 1816.84C2561.41 1817.84 2562.07 1818.94 2562.37 1820.16C2562.71 1821.37 2562.8 1822.6 2562.64 1823.85C2562.48 1825.1 2562.08 1826.27 2561.44 1827.36C2560.83 1828.45 2559.91 1829.37 2558.69 1830.11C2557.5 1830.85 2555.95 1831.37 2554.06 1831.65Z" fill="black"/>
<path d="M2550.41 1864.29C2548.34 1864.65 2545.86 1864.64 2542.95 1864.26L2539.92 1863.86L2543.02 1840.03L2548.11 1840.7C2550.32 1840.99 2552.24 1841.6 2553.84 1842.51C2555.45 1843.4 2556.76 1844.47 2557.75 1845.74C2558.79 1846.98 2559.5 1848.35 2559.91 1849.84C2560.31 1851.33 2560.42 1852.82 2560.22 1854.3C2560.01 1855.97 2559.52 1857.52 2558.78 1858.92C2558.03 1860.3 2556.97 1861.44 2555.59 1862.37C2554.21 1863.29 2552.48 1863.93 2550.41 1864.29Z" fill="black"/>
<path d="M2266.03 1736.53C2264.21 1735.99 2262.38 1735.04 2260.54 1733.7L2277.19 1711.22C2278.95 1712.62 2280.31 1714.12 2281.3 1715.73C2282.31 1717.36 2282.94 1719.04 2283.18 1720.76C2283.48 1722.47 2283.39 1724.2 2282.91 1725.95C2282.43 1727.7 2281.57 1729.42 2280.33 1731.09C2279.07 1732.79 2277.67 1734.13 2276.12 1735.12C2274.61 1736.1 2273.01 1736.71 2271.31 1736.96C2269.62 1737.18 2267.86 1737.04 2266.03 1736.53Z" fill="black"/>
<path d="M2172.17 1622.71C2170.77 1621.41 2169.34 1619.61 2167.9 1617.32L2166.25 1614.72L2182.36 1604.45L2183.97 1607.02C2185.42 1609.31 2186.41 1611.39 2186.96 1613.24C2187.5 1615.09 2187.69 1616.72 2187.52 1618.12C2187.4 1619.54 2186.98 1620.75 2186.25 1621.77C2185.55 1622.81 2184.67 1623.67 2183.61 1624.34C2182.56 1625.02 2181.41 1625.46 2180.17 1625.66C2178.95 1625.89 2177.67 1625.77 2176.32 1625.3C2174.99 1624.86 2173.61 1624 2172.17 1622.71Z" fill="black"/>
<path d="M2145.01 1640.83C2143.4 1639.46 2141.81 1637.53 2140.24 1635.04L2138.6 1632.44L2158.72 1619.55L2161.47 1623.91C2162.67 1625.82 2163.44 1627.68 2163.77 1629.51C2164.13 1631.33 2164.15 1633.02 2163.83 1634.61C2163.55 1636.2 2162.97 1637.64 2162.09 1638.9C2161.21 1640.17 2160.15 1641.21 2158.9 1642.01C2157.49 1642.92 2156 1643.53 2154.45 1643.86C2152.93 1644.16 2151.38 1644.08 2149.79 1643.6C2148.21 1643.13 2146.61 1642.2 2145.01 1640.83Z" fill="black"/>
<path d="M2069.43 1331.78C2068.55 1330.09 2067.96 1328.11 2067.64 1325.84L2095.26 1322.36C2095.47 1324.6 2095.34 1326.64 2094.88 1328.47C2094.41 1330.33 2093.65 1331.95 2092.59 1333.32C2091.57 1334.72 2090.27 1335.85 2088.69 1336.72C2087.1 1337.59 2085.28 1338.15 2083.23 1338.41C2081.14 1338.68 2079.2 1338.59 2077.43 1338.14C2075.68 1337.73 2074.13 1336.99 2072.77 1335.92C2071.45 1334.85 2070.33 1333.47 2069.43 1331.78Z" fill="black"/>
<path d="M2066.55 1170.27C2066.02 1168.43 2065.72 1166.14 2065.66 1163.42L2065.6 1160.34L2084.64 1159.98L2084.71 1163.02C2084.77 1165.73 2084.55 1168.03 2084.06 1169.9C2083.58 1171.77 2082.9 1173.26 2082.04 1174.37C2081.2 1175.52 2080.22 1176.33 2079.08 1176.82C2077.94 1177.34 2076.74 1177.62 2075.49 1177.65C2074.24 1177.67 2073.04 1177.45 2071.87 1176.98C2070.71 1176.54 2069.68 1175.76 2068.76 1174.66C2067.85 1173.58 2067.11 1172.12 2066.55 1170.27Z" fill="black"/>
<path d="M2034 1171.57C2033.33 1169.56 2032.97 1167.08 2032.9 1164.13L2032.84 1161.05L2056.67 1160.53L2056.78 1165.71C2056.83 1167.96 2056.52 1169.96 2055.87 1171.7C2055.25 1173.44 2054.39 1174.9 2053.3 1176.08C2052.24 1177.3 2051 1178.22 2049.6 1178.85C2048.2 1179.48 2046.76 1179.81 2045.28 1179.84C2043.6 1179.87 2042.02 1179.63 2040.53 1179.09C2039.07 1178.56 2037.78 1177.68 2036.67 1176.44C2035.56 1175.2 2034.67 1173.58 2034 1171.57Z" fill="black"/>
<path fill-rule="evenodd" clip-rule="evenodd" d="M3726.48 1541.64C3763.72 1440.24 3782.33 1329.17 3782.33 1208.42V829.579C3782.33 709.751 3763.72 599.141 3726.48 497.748C3689.24 395.433 3637.52 307.866 3571.32 235.048C3505.12 161.307 3426.5 103.697 3335.48 62.2185C3245.28 20.7395 3146.81 0 3040.06 0H2603.13C2496.38 0 2397.5 20.7395 2306.47 62.2185C2215.44 103.697 2136.83 161.307 2070.63 235.048C2004.43 307.866 1952.3 395.433 1914.23 497.748C1876.99 599.141 1858.37 709.751 1858.37 829.579V1208.42C1858.37 1329.17 1876.99 1440.24 1914.23 1541.64C1952.3 1643.03 2004.43 1730.59 2070.63 1804.34C2136.83 1878.08 2215.44 1935.69 2306.47 1977.16C2397.5 2017.72 2496.38 2038 2603.13 2038H3040.06C3146.81 2038 3245.28 2017.72 3335.48 1977.16C3426.5 1935.69 3505.12 1878.08 3571.32 1804.34C3637.52 1730.59 3689.24 1643.03 3726.48 1541.64ZM3428.57 637.394C3449.26 694.542 3459.61 758.604 3459.61 829.579V1208.42C3459.61 1279.4 3449.26 1343.92 3428.57 1401.99C3408.71 1459.14 3380.16 1508.45 3342.93 1549.93C3305.69 1590.49 3261 1622.29 3208.87 1645.33C3157.56 1667.45 3100.47 1678.52 3037.57 1678.52H2603.13C2540.24 1678.52 2482.73 1667.45 2430.6 1645.33C2379.29 1622.29 2335.02 1590.49 2297.78 1549.93C2260.54 1508.45 2231.58 1459.14 2210.89 1401.99C2191.03 1343.92 2181.1 1279.4 2181.1 1208.42V829.579C2181.1 758.604 2191.03 694.542 2210.89 637.394C2231.58 579.323 2260.54 530.009 2297.78 489.452C2335.02 447.973 2379.29 416.172 2430.6 394.05C2482.73 371.006 2540.24 359.484 2603.13 359.484H3040.06C3102.12 359.484 3158.81 371.006 3210.11 394.05C3262.24 416.172 3306.52 447.973 3342.93 489.452C3380.16 530.009 3408.71 579.323 3428.57 637.394ZM2987.72 278.699L3023 279.306L3024.25 205.379L2995.73 204.888L2995.32 229.066L2985.95 228.905C2979.89 228.801 2974.67 229.391 2970.27 230.675C2965.84 231.959 2962.19 233.721 2959.32 235.961C2956.42 238.2 2954.27 240.801 2952.88 243.762C2951.44 246.757 2950.7 249.895 2950.64 253.179C2950.58 256.927 2951.26 260.339 2952.69 263.416C2954.09 266.525 2956.29 269.2 2959.32 271.442C2962.34 273.684 2966.21 275.425 2970.92 276.668C2975.61 277.943 2981.21 278.62 2987.72 278.699ZM3035.67 279.748L3097.54 283.609L3102.07 209.813L3040.2 205.952L3039.51 217.324L3072.9 219.409L3071.69 239.174L3046.17 237.581L3045.47 248.954L3070.99 250.546L3069.72 270.457L3036.37 268.376L3035.67 279.748ZM3181.66 294.25L3143.2 289.167C3137.79 288.451 3133.12 287.366 3129.19 285.91C3125.24 284.45 3122.02 282.686 3119.53 280.618C3117.01 278.579 3115.22 276.268 3114.16 273.686C3113.1 271.137 3112.76 268.399 3113.14 265.472C3113.52 262.545 3114.69 259.89 3116.66 257.507C3118.59 255.153 3121.23 253.243 3124.57 251.778C3119.68 249.626 3116.16 246.953 3114.02 243.759C3111.88 240.566 3111.08 236.897 3111.62 232.753C3111.99 229.925 3113.03 227.285 3114.74 224.835C3116.42 222.381 3118.74 220.313 3121.72 218.632C3124.66 216.946 3128.23 215.746 3132.44 215.031C3136.64 214.349 3141.45 214.365 3146.86 215.081L3191.19 220.94L3181.66 294.25ZM3230.61 262.947L3263.54 271.073L3265.74 261.987L3232.81 253.861L3230.61 262.947ZM3366.12 289.97C3363.54 286.999 3360.65 284.383 3357.43 282.12C3354.22 279.857 3351.09 278.109 3348.04 276.875C3344.52 275.456 3341.76 274.928 3339.73 275.29C3337.68 275.64 3336.31 276.692 3335.61 278.447C3335.39 279.001 3335.27 279.614 3335.25 280.285C3335.2 280.944 3335.36 281.668 3335.72 282.457C3336.03 283.264 3336.59 284.148 3337.37 285.11C3338.12 286.09 3339.17 287.177 3340.54 288.373L3347.62 294.504C3352.68 298.905 3356 303.428 3357.59 308.074C3359.17 312.75 3359.01 317.474 3357.12 322.247C3355.89 325.326 3354.08 328.022 3351.67 330.337C3349.25 332.682 3346.31 334.408 3342.86 335.514C3339.39 336.652 3335.43 337.071 3330.98 336.773C3326.5 336.462 3321.6 335.233 3316.28 333.086C3313.66 332.025 3311.2 330.853 3308.91 329.57C3306.62 328.287 3304.52 326.974 3302.61 325.63C3300.67 324.274 3298.94 322.914 3297.42 321.552C3295.9 320.221 3294.59 318.975 3293.49 317.817L3302.01 310.81C3302.75 311.82 3303.57 312.779 3304.49 313.685C3305.37 314.578 3306.3 315.401 3307.28 316.153C3308.22 316.893 3309.19 317.55 3310.16 318.123C3311.14 318.697 3312.06 319.156 3312.91 319.502C3314.38 320.094 3315.74 320.412 3317 320.456C3318.24 320.531 3319.38 320.399 3320.4 320.061C3321.38 319.741 3322.22 319.261 3322.94 318.621C3323.61 317.999 3324.1 317.304 3324.41 316.534C3324.67 315.857 3324.78 315.133 3324.74 314.363C3324.65 313.611 3324.34 312.773 3323.82 311.849C3323.26 310.943 3322.48 309.93 3321.47 308.808C3320.42 307.705 3319.08 306.447 3317.44 305.036L3312.68 300.967C3307.52 296.56 3304.06 291.965 3302.31 287.184C3300.56 282.403 3300.68 277.519 3302.66 272.531C3304.01 269.144 3306.01 266.327 3308.68 264.081C3311.31 261.822 3314.54 260.25 3318.37 259.366C3322.18 258.512 3326.55 258.401 3331.47 259.032C3336.35 259.682 3341.72 261.192 3347.59 263.561C3350.4 264.696 3353.05 265.948 3355.56 267.317C3358.04 268.643 3360.42 270.104 3362.69 271.701C3364.93 273.286 3367.08 275.012 3369.14 276.88C3371.2 278.747 3373.19 280.769 3375.13 282.944L3366.12 289.97ZM3356.38 348.866L3381.46 362.67L3416.6 297.773L3391.56 283.993L3356.38 348.866ZM3440.66 406.496L3412.39 385.212C3407.15 381.31 3403 377.461 3399.94 373.666C3396.83 369.878 3394.7 366.184 3393.55 362.585C3392.39 358.985 3392.15 355.512 3392.82 352.167C3393.45 348.829 3394.87 345.658 3397.1 342.655C3399.05 340.023 3401.47 337.915 3404.37 336.33C3407.22 334.751 3410.47 333.908 3414.12 333.801C3417.75 333.673 3421.73 334.394 3426.07 335.964C3430.38 337.513 3434.96 340.114 3439.81 343.765L3447.33 349.421L3461.68 330.045L3484.53 347.25L3440.66 406.496ZM3442.14 407.383L3484.24 453.244L3538.06 403.017L3495.95 357.156L3487.66 364.897L3510.39 389.652L3495.97 403.105L3478.61 384.191L3470.32 391.931L3487.68 410.845L3473.13 424.362L3450.43 399.643L3442.14 407.383ZM3525.33 517.491L3504.52 484.486C3501.59 479.839 3499.42 475.531 3498.01 471.562C3496.58 467.564 3495.85 463.941 3495.83 460.693C3495.77 457.434 3496.38 454.567 3497.66 452.092C3498.92 449.635 3500.78 447.615 3503.25 446.031C3505.72 444.447 3508.5 443.652 3511.57 443.646C3514.6 443.63 3517.75 444.444 3521.01 446.089C3519.5 440.921 3519.28 436.486 3520.34 432.782C3521.39 429.078 3523.67 426.106 3527.17 423.863C3529.56 422.333 3532.23 421.444 3535.19 421.196C3538.14 420.92 3541.2 421.392 3544.39 422.613C3547.56 423.805 3550.77 425.798 3554.01 428.593C3557.22 431.406 3560.3 435.136 3563.23 439.783L3587.21 477.826L3525.33 517.491ZM3577.37 533.748L3590.01 565.465L3598.62 561.978L3585.98 530.26L3577.37 533.748ZM3635.57 662.192C3636.43 658.342 3636.81 654.442 3636.73 650.492C3636.65 646.543 3636.2 642.961 3635.38 639.747C3634.44 636.051 3633.23 633.487 3631.75 632.055C3630.26 630.591 3628.6 630.092 3626.79 630.561C3626.21 630.708 3625.65 630.973 3625.1 631.354C3624.55 631.703 3624.06 632.257 3623.64 633.015C3623.18 633.749 3622.8 634.721 3622.5 635.929C3622.15 637.114 3621.9 638.615 3621.75 640.434L3621.02 649.815C3620.48 656.528 3618.82 661.902 3616.04 665.94C3613.23 669.985 3609.36 672.644 3604.42 673.917C3601.23 674.739 3598 674.852 3594.72 674.258C3591.42 673.672 3588.3 672.301 3585.38 670.144C3582.42 667.996 3579.75 665.021 3577.36 661.22C3574.96 657.387 3573.06 652.675 3571.64 647.083C3570.94 644.319 3570.42 641.627 3570.1 639.006C3569.78 636.385 3569.59 633.9 3569.54 631.551C3569.47 629.17 3569.54 626.961 3569.74 624.924C3569.9 622.896 3570.13 621.093 3570.41 619.515L3581.05 622.319C3580.67 623.511 3580.39 624.748 3580.21 626.028C3580.01 627.276 3579.9 628.519 3579.88 629.758C3579.84 630.965 3579.89 632.136 3580 633.269C3580.12 634.403 3580.29 635.42 3580.52 636.32C3580.91 637.862 3581.46 639.159 3582.17 640.209C3582.85 641.267 3583.62 642.112 3584.49 642.743C3585.33 643.35 3586.21 643.756 3587.15 643.96C3588.04 644.14 3588.89 644.128 3589.68 643.922C3590.38 643.742 3591.03 643.404 3591.62 642.911C3592.16 642.393 3592.66 641.65 3593.09 640.682C3593.48 639.691 3593.83 638.454 3594.13 636.972C3594.4 635.466 3594.61 633.631 3594.78 631.466L3595.22 625.188C3595.71 618.388 3597.35 612.864 3600.14 608.617C3602.93 604.371 3606.91 601.582 3612.08 600.252C3615.58 599.348 3619.02 599.318 3622.39 600.161C3625.76 600.972 3628.92 602.673 3631.89 605.264C3634.82 607.863 3637.49 611.353 3639.89 615.733C3642.25 620.089 3644.21 625.352 3645.78 631.522C3646.52 634.479 3647.09 637.38 3647.47 640.226C3647.88 643.032 3648.11 645.83 3648.17 648.622C3648.23 651.381 3648.11 654.149 3647.83 656.926C3647.55 659.703 3647.11 662.521 3646.51 665.381L3635.57 662.192ZM3583.62 691.681L3588.78 720.017L3660.91 706.673L3655.76 678.386L3583.62 691.681ZM3599.04 799.342L3594.66 764.041C3593.82 757.528 3593.69 751.844 3594.28 746.99C3594.84 742.106 3596 737.998 3597.78 734.665C3599.55 731.332 3601.87 728.75 3604.73 726.919C3607.54 725.059 3610.8 723.897 3614.49 723.431C3617.72 723.024 3620.91 723.324 3624.05 724.332C3627.15 725.311 3630.01 727.09 3632.62 729.669C3635.22 732.216 3637.47 735.61 3639.35 739.852C3641.23 744.061 3642.55 749.193 3643.3 755.249L3644.46 764.63L3668.26 761.628L3671.8 790.165L3599.04 799.342ZM3600.24 811.075L3604.44 873.425L3677.6 868.42L3673.41 806.07L3662.13 806.841L3664.39 840.499L3644.8 841.839L3643.07 816.124L3631.79 816.896L3633.52 842.61L3613.78 843.911L3611.52 810.303L3600.24 811.075ZM3606.64 960.866L3605.82 921.767C3605.7 916.262 3606.06 911.443 3606.89 907.312C3607.73 903.146 3608.97 899.669 3610.62 896.88C3612.24 894.058 3614.23 891.925 3616.61 890.48C3618.94 889.037 3621.58 888.283 3624.51 888.22C3627.43 888.157 3630.21 888.927 3632.85 890.529C3635.45 892.099 3637.72 894.439 3639.66 897.549C3641.03 892.344 3643.12 888.434 3645.93 885.819C3648.73 883.204 3652.21 881.852 3656.35 881.763C3659.18 881.702 3661.93 882.34 3664.59 883.676C3667.25 884.979 3669.63 886.985 3671.72 889.694C3673.82 892.369 3675.54 895.75 3676.87 899.835C3678.18 903.921 3678.89 908.717 3679 914.222L3679.96 959.29L3606.64 960.866ZM2713.71 1813.12L2678.43 1812.51L2677.18 1886.43L2705.7 1886.93L2706.11 1862.75L2715.49 1862.91C2721.54 1863.01 2726.76 1862.42 2731.16 1861.14C2735.59 1859.85 2739.24 1858.09 2742.11 1855.85C2745.01 1853.61 2747.16 1851.01 2748.56 1848.05C2749.99 1845.06 2750.74 1841.92 2750.79 1838.64C2750.85 1834.89 2750.17 1831.48 2748.74 1828.4C2747.35 1825.29 2745.14 1822.61 2742.12 1820.37C2739.1 1818.13 2735.23 1816.39 2730.51 1815.15C2725.83 1813.87 2720.23 1813.19 2713.71 1813.12ZM2603.9 1808.2L2665.76 1812.07L2665.06 1823.44L2631.72 1821.36L2630.45 1841.27L2655.96 1842.86L2655.26 1854.23L2629.75 1852.64L2628.53 1872.41L2661.93 1874.49L2661.23 1885.86L2599.37 1882L2603.9 1808.2ZM2558.23 1802.65L2519.77 1797.56L2510.24 1870.87L2554.57 1876.73C2559.98 1877.45 2564.79 1877.47 2569 1876.78C2573.2 1876.07 2576.78 1874.87 2579.72 1873.18C2582.69 1871.5 2585.02 1869.43 2586.69 1866.98C2588.41 1864.53 2589.45 1861.89 2589.81 1859.06C2590.35 1854.92 2589.55 1851.25 2587.41 1848.05C2585.27 1844.86 2581.76 1842.19 2576.86 1840.04C2580.2 1838.57 2582.84 1836.66 2584.77 1834.31C2586.74 1831.92 2587.91 1829.27 2588.29 1826.34C2588.68 1823.42 2588.33 1820.68 2587.27 1818.13C2586.21 1815.55 2584.42 1813.24 2581.9 1811.2C2579.42 1809.13 2576.2 1807.36 2572.24 1805.9C2568.31 1804.45 2563.64 1803.36 2558.23 1802.65ZM2437.9 1820.74L2470.83 1828.87L2468.62 1837.95L2435.69 1829.83L2437.9 1820.74ZM2344 1809.69C2340.79 1807.43 2337.89 1804.81 2335.32 1801.84L2326.3 1808.87C2328.24 1811.05 2330.24 1813.07 2332.29 1814.93C2334.35 1816.8 2336.5 1818.53 2338.74 1820.11C2341.01 1821.71 2343.39 1823.17 2345.88 1824.5C2348.38 1825.87 2351.04 1827.12 2353.85 1828.25C2359.71 1830.62 2365.08 1832.13 2369.96 1832.78C2374.89 1833.41 2379.25 1833.3 2383.07 1832.45C2386.89 1831.56 2390.12 1829.99 2392.76 1827.73C2395.42 1825.49 2397.43 1822.67 2398.77 1819.28C2400.76 1814.3 2400.87 1809.41 2399.12 1804.63C2397.37 1799.85 2393.92 1795.25 2388.76 1790.85L2383.99 1786.78C2382.36 1785.37 2381.01 1784.11 2379.96 1783.01C2378.96 1781.88 2378.17 1780.87 2377.61 1779.96C2377.09 1779.04 2376.79 1778.2 2376.7 1777.45C2376.65 1776.68 2376.76 1775.96 2377.03 1775.28C2377.33 1774.51 2377.82 1773.81 2378.5 1773.19C2379.21 1772.55 2380.06 1772.07 2381.03 1771.75C2382.06 1771.42 2383.19 1771.28 2384.43 1771.36C2385.69 1771.4 2387.06 1771.72 2388.52 1772.31C2389.38 1772.66 2390.29 1773.12 2391.27 1773.69C2392.25 1774.26 2393.21 1774.92 2394.15 1775.66C2395.13 1776.41 2396.06 1777.24 2396.95 1778.13C2397.86 1779.04 2398.69 1779.99 2399.42 1781L2407.95 1774C2406.85 1772.84 2405.54 1771.59 2404.01 1770.26C2402.49 1768.9 2400.77 1767.54 2398.82 1766.18C2396.91 1764.84 2394.81 1763.53 2392.52 1762.24C2390.23 1760.96 2387.77 1759.79 2385.15 1758.73C2379.83 1756.58 2374.94 1755.35 2370.45 1755.04C2366 1754.74 2362.04 1755.16 2358.58 1756.3C2355.12 1757.41 2352.19 1759.13 2349.77 1761.48C2347.36 1763.79 2345.54 1766.49 2344.32 1769.57C2342.42 1774.34 2342.26 1779.06 2343.84 1783.74C2345.43 1788.39 2348.76 1792.91 2353.81 1797.31L2360.89 1803.44C2362.26 1804.64 2363.32 1805.72 2364.06 1806.7C2364.85 1807.67 2365.4 1808.55 2365.72 1809.36C2366.08 1810.15 2366.23 1810.87 2366.18 1811.53C2366.16 1812.2 2366.04 1812.81 2365.82 1813.37C2365.13 1815.12 2363.75 1816.17 2361.7 1816.52C2359.68 1816.89 2356.91 1816.36 2353.4 1814.94C2350.34 1813.71 2347.21 1811.96 2344 1809.69ZM2319.97 1729.14L2345.05 1742.95L2309.87 1807.82L2284.83 1794.04L2319.97 1729.14ZM2289.05 1706.6L2260.77 1685.32L2216.9 1744.56L2239.76 1761.77L2254.11 1742.39L2261.62 1748.05C2266.47 1751.7 2271.05 1754.3 2275.36 1755.85C2279.7 1757.42 2283.69 1758.14 2287.31 1758.01C2290.96 1757.91 2294.21 1757.06 2297.07 1755.48C2299.96 1753.9 2302.39 1751.79 2304.34 1749.16C2306.56 1746.16 2307.98 1742.99 2308.61 1739.65C2309.28 1736.3 2309.04 1732.83 2307.89 1729.23C2306.73 1725.63 2304.6 1721.94 2301.5 1718.15C2298.44 1714.35 2294.28 1710.5 2289.05 1706.6ZM2217.19 1638.57L2259.3 1684.43L2251 1692.17L2228.31 1667.45L2213.75 1680.97L2231.12 1699.88L2222.82 1707.62L2205.46 1688.71L2191.05 1702.16L2213.78 1726.92L2205.48 1734.66L2163.38 1688.8L2217.19 1638.57ZM2196.91 1607.33L2176.11 1574.32L2114.22 1613.99L2138.21 1652.03C2141.14 1656.68 2144.21 1660.41 2147.42 1663.22C2150.67 1666.02 2153.87 1668.01 2157.04 1669.2C2160.23 1670.42 2163.29 1670.89 2166.24 1670.62C2169.2 1670.37 2171.88 1669.48 2174.26 1667.95C2177.76 1665.71 2180.04 1662.74 2181.1 1659.03C2182.15 1655.33 2181.93 1650.89 2180.43 1645.72C2183.68 1647.37 2186.83 1648.18 2189.86 1648.17C2192.94 1648.16 2195.71 1647.37 2198.18 1645.78C2200.65 1644.2 2202.51 1642.18 2203.77 1639.72C2205.06 1637.25 2205.67 1634.38 2205.6 1631.12C2205.58 1627.87 2204.85 1624.25 2203.43 1620.25C2202.02 1616.28 2199.84 1611.97 2196.91 1607.33ZM2111.43 1526.35L2124.07 1558.07L2115.46 1561.55L2102.82 1529.84L2111.43 1526.35ZM2064.7 1441.32C2064.62 1437.37 2065.01 1433.47 2065.86 1429.62L2054.92 1426.43C2054.32 1429.29 2053.88 1432.11 2053.6 1434.89C2053.32 1437.67 2053.2 1440.43 2053.26 1443.19C2053.32 1445.98 2053.56 1448.78 2053.96 1451.59C2054.34 1454.43 2054.91 1457.34 2055.66 1460.29C2057.22 1466.46 2059.18 1471.73 2061.54 1476.08C2063.95 1480.46 2066.61 1483.95 2069.55 1486.55C2072.51 1489.14 2075.68 1490.84 2079.04 1491.65C2082.41 1492.5 2085.85 1492.47 2089.36 1491.56C2094.52 1490.23 2098.5 1487.44 2101.29 1483.2C2104.09 1478.95 2105.73 1473.43 2106.21 1466.63L2106.66 1460.35C2106.82 1458.18 2107.04 1456.35 2107.3 1454.84C2107.6 1453.36 2107.95 1452.12 2108.34 1451.13C2108.78 1450.16 2109.27 1449.42 2109.82 1448.9C2110.4 1448.41 2111.05 1448.07 2111.75 1447.89C2112.55 1447.69 2113.39 1447.67 2114.29 1447.85C2115.22 1448.06 2116.11 1448.46 2116.94 1449.07C2117.81 1449.7 2118.59 1450.55 2119.26 1451.61C2119.97 1452.66 2120.52 1453.95 2120.91 1455.49C2121.14 1456.39 2121.31 1457.41 2121.43 1458.54C2121.55 1459.68 2121.59 1460.85 2121.55 1462.06C2121.53 1463.29 2121.42 1464.54 2121.23 1465.79C2121.04 1467.07 2120.76 1468.3 2120.38 1469.5L2131.03 1472.3C2131.31 1470.72 2131.53 1468.92 2131.69 1466.89C2131.89 1464.85 2131.96 1462.64 2131.9 1460.26C2131.85 1457.91 2131.66 1455.43 2131.33 1452.81C2131.01 1450.19 2130.5 1447.5 2129.79 1444.73C2128.38 1439.14 2126.47 1434.43 2124.07 1430.59C2121.68 1426.79 2119.01 1423.82 2116.05 1421.67C2113.13 1419.51 2110.02 1418.14 2106.71 1417.56C2103.44 1416.96 2100.2 1417.08 2097.02 1417.9C2092.08 1419.17 2088.2 1421.83 2085.39 1425.87C2082.61 1429.91 2080.95 1435.29 2080.41 1442L2079.68 1451.38C2079.53 1453.2 2079.28 1454.7 2078.94 1455.88C2078.63 1457.09 2078.25 1458.06 2077.79 1458.8C2077.37 1459.56 2076.89 1460.11 2076.33 1460.46C2075.78 1460.84 2075.22 1461.11 2074.65 1461.25C2072.83 1461.72 2071.17 1461.22 2069.68 1459.76C2068.2 1458.33 2066.99 1455.76 2066.05 1452.07C2065.24 1448.85 2064.79 1445.27 2064.7 1441.32ZM2112.65 1371.8L2117.81 1400.13L2045.68 1413.43L2040.53 1385.14L2112.65 1371.8ZM2106.77 1327.77L2102.39 1292.47L2029.63 1301.65L2033.17 1330.19L2056.97 1327.18L2058.13 1336.56C2058.88 1342.62 2060.2 1347.75 2062.08 1351.96C2063.97 1356.2 2066.21 1359.6 2068.82 1362.14C2071.42 1364.72 2074.28 1366.5 2077.39 1367.48C2080.53 1368.49 2083.71 1368.79 2086.95 1368.38C2090.63 1367.92 2093.89 1366.75 2096.71 1364.89C2099.56 1363.06 2101.88 1360.48 2103.65 1357.15C2105.43 1353.82 2106.59 1349.71 2107.15 1344.82C2107.74 1339.97 2107.62 1334.29 2106.77 1327.77ZM2097 1218.39L2101.19 1280.74L2089.92 1281.51L2087.65 1247.9L2067.91 1249.2L2069.64 1274.92L2058.36 1275.69L2056.63 1249.98L2037.04 1251.32L2039.3 1284.97L2028.03 1285.74L2023.83 1223.39L2097 1218.39ZM2095.62 1170.05L2094.79 1130.95L2021.48 1132.52L2022.43 1177.59C2022.55 1183.1 2023.26 1187.89 2024.56 1191.98C2025.9 1196.06 2027.61 1199.44 2029.71 1202.12C2031.81 1204.83 2034.19 1206.84 2036.85 1208.14C2039.51 1209.47 2042.25 1210.11 2045.08 1210.05C2049.22 1209.96 2052.7 1208.61 2055.51 1206C2058.32 1203.38 2060.4 1199.47 2061.78 1194.26C2063.72 1197.37 2065.99 1199.71 2068.59 1201.28C2071.22 1202.89 2074 1203.66 2076.93 1203.59C2079.86 1203.53 2082.49 1202.78 2084.83 1201.33C2087.2 1199.89 2089.19 1197.76 2090.81 1194.93C2092.46 1192.14 2093.71 1188.67 2094.54 1184.5C2095.37 1180.37 2095.73 1175.55 2095.62 1170.05Z" fill="black"/>
<path d="M1767.56 1901.12C1775.84 1879 1779.97 1855.03 1779.97 1829.22V1019C1779.97 994.113 1775.84 971.069 1767.56 949.868C1759.29 927.746 1747.7 908.39 1732.81 891.798C1718.74 875.206 1701.77 862.302 1681.91 853.084C1662.05 842.945 1640.54 837.875 1617.37 837.875H598.29V1200.12H1111.7V1019L1566.49 1401.99L1111.7 1802.95V1650.86H453.062C411.686 1650.86 379.413 1638.42 356.243 1613.53C333.9 1587.72 322.729 1551.77 322.729 1505.69V535.079C322.729 486.226 333.9 449.356 356.243 424.468C378.586 399.581 410.859 387.137 453.062 387.137H1765.08V27.6526H453.062C397.619 27.6526 347.968 35.4876 304.11 51.1574C260.252 66.8272 221.359 88.0276 187.431 114.758C154.331 140.568 125.782 170.525 101.784 204.63C77.786 238.735 58.3395 274.683 43.4443 312.475C28.5491 349.345 17.3777 387.137 9.93014 425.851C3.31006 463.643 0 499.13 0 532.313V1505.69C0 1567.44 7.03381 1623.21 21.1015 1672.99C35.1692 1721.84 53.7882 1765.16 76.9585 1802.95C100.956 1839.82 128.264 1871.62 158.882 1898.35C189.5 1924.16 221.359 1945.36 254.459 1961.96C288.387 1978.55 322.315 1990.99 356.243 1999.29C390.999 2006.66 423.271 2010.35 453.062 2010.35H1617.37C1640.54 2010.35 1662.05 2005.74 1681.91 1996.52C1701.77 1987.3 1718.74 1974.86 1732.81 1959.19C1747.7 1942.6 1759.29 1923.24 1767.56 1901.12Z" fill="black"/>
<path fill-rule="evenodd" clip-rule="evenodd" d="M5645.67 2010.35H5322.94V1523.66H4188.43V2010.35H3865.7L3865.69 775.471H4149.68V581.861L4472.06 581.397V387.137H4755.68V27.6526H5483.07C5505.41 27.6526 5526.51 32.2614 5546.37 41.479C5566.23 50.6965 5583.61 63.6011 5598.5 80.1927C5613.4 96.7843 5624.98 116.141 5633.26 138.263C5641.53 160.385 5645.67 183.89 5645.67 208.777V2010.35ZM5322.94 387.137H5039.31V581.397H4755.68V775.657H4472.06V969.917H4188.43V1164.18H5322.94V387.137Z" fill="black"/>
<path d="M6249.13 2010.35H6831.28V1936.1H6947.5V2010.35H7413.43V1650.86H6947.5V1732.3H6831.28V1650.86H6249.13C6207.75 1650.86 6175.48 1638.42 6152.31 1613.53C6129.96 1587.72 6118.79 1551.77 6118.79 1505.69V535.079C6118.79 486.226 6129.96 449.356 6152.31 424.468C6174.65 399.581 6206.92 387.137 6249.13 387.137H6831.28V312.475H6947.5V387.137H7413.43V27.6526H6947.5V114.758H6831.28V27.6526H6249.13C6193.68 27.6526 6144.03 35.4876 6100.17 51.1574C6056.32 66.8272 6017.42 88.0276 5983.49 114.758C5950.39 140.568 5921.85 170.525 5897.85 204.63C5873.85 238.735 5854.4 274.683 5839.51 312.475C5824.61 349.345 5813.44 387.137 5805.99 425.851C5799.37 463.643 5796.06 499.13 5796.06 532.313V1505.69C5796.06 1567.44 5803.1 1623.21 5817.17 1672.99C5831.23 1721.84 5849.85 1765.16 5873.02 1802.95C5897.02 1839.82 5924.33 1871.62 5954.95 1898.35C5985.56 1924.16 6017.42 1945.36 6050.52 1961.96C6084.45 1978.55 6118.38 1990.99 6152.31 1999.29C6187.06 2006.66 6219.34 2010.35 6249.13 2010.35Z" fill="black"/>
<path d="M9274.2 407.612V27.6526H8951.47V837.875L8044 837.875V27.6526H7721.27V407.612H7478.72V1630.41H7721.27V2010.35H8044V1200.12L8951.47 1200.12V2010.35H9274.2V1630.41H9500V407.612H9274.2Z" fill="black"/>
</svg>
