<svg xmlns="http://www.w3.org/2000/svg" version="1.1" viewBox="0 0 100 100">
 <path d="m90.824 13.254h-81.648c-1.7266 0-3.125 1.3984-3.125 3.125 0 1.7266 1.3984 3.125 3.125 3.125h5.2305v65.781c0 6.3906 5.1992 11.59 11.59 11.59h48c6.3906 0 11.59-5.1992 11.59-11.59l0.003906-65.781h5.2344c1.7266 0 3.125-1.3984 3.125-3.125 0-1.7266-1.3984-3.125-3.125-3.125zm-11.484 72.031c0 2.9453-2.3945 5.3398-5.3398 5.3398h-48c-2.9453 0-5.3398-2.3945-5.3398-5.3398l-0.003906-65.781h58.684z"/>
 <path d="m39.492 9.375h21.012c1.7266 0 3.125-1.3984 3.125-3.125s-1.3984-3.125-3.125-3.125h-21.012c-1.7266 0-3.125 1.3984-3.125 3.125s1.3984 3.125 3.125 3.125z"/>
 <path d="m50 81.523c1.7266 0 3.125-1.3984 3.125-3.125v-46.664c0-1.7266-1.3984-3.125-3.125-3.125s-3.125 1.3984-3.125 3.125v46.664c0 1.7266 1.3984 3.125 3.125 3.125z"/>
 <path d="m65.945 81.523c1.7266 0 3.125-1.3984 3.125-3.125v-46.664c0-1.7266-1.3984-3.125-3.125-3.125-1.7266 0-3.125 1.3984-3.125 3.125v46.664c0 1.7266 1.3984 3.125 3.125 3.125z"/>
 <path d="m34.051 81.523c1.7266 0 3.125-1.3984 3.125-3.125v-46.664c0-1.7266-1.3984-3.125-3.125-3.125-1.7266 0-3.125 1.3984-3.125 3.125v46.664c0 1.7266 1.3984 3.125 3.125 3.125z"/>
</svg>