<svg xmlns="http://www.w3.org/2000/svg" xmlns:xlink="http://www.w3.org/1999/xlink" xmlns:xodm="http://www.corel.com/coreldraw/odm/2003" xml:space="preserve" version="1.0" style="shape-rendering:geometricPrecision;text-rendering:geometricPrecision;image-rendering:optimizeQuality;" viewBox="0 0 17.813 18.05" x="0px" y="0px" fill-rule="evenodd" clip-rule="evenodd"><defs><style type="text/css">
</style></defs><g><path d="M10.525 0.012l6.433 0.818c0.468,0.06 0.855,0.508 0.855,1.128l0 7.07 0 7.069c0,0.621 -0.387,1.069 -0.855,1.128l-6.433 0.818c-0.958,0.122 -1.337,-0.693 -1.337,-1.24l0 -7.775 0 -7.775c0,-0.548 0.379,-1.363 1.337,-1.241zm-7.106 6.009l0 1.277c0,0.157 -0.128,0.285 -0.285,0.285l-2.849 0c-0.157,0 -0.285,0.128 -0.285,0.285l0 2.319c0,0.157 0.128,0.285 0.285,0.285l2.849 0c0.157,0 0.285,0.129 0.285,0.286l0 1.276c0,0.11 0.057,0.203 0.154,0.254 0.097,0.05 0.206,0.042 0.295,-0.02l4.273 -3.007c0.079,-0.055 0.122,-0.137 0.122,-0.233 0,-0.096 -0.043,-0.178 -0.122,-0.234l-4.273 -3.006c-0.089,-0.063 -0.198,-0.07 -0.295,-0.02 -0.097,0.05 -0.154,0.144 -0.154,0.253zm1.952 -5.183l2.723 0c0.082,0 0.152,0.031 0.207,0.092 0.056,0.06 0.08,0.133 0.073,0.215 -0.003,0.037 -0.005,0.073 -0.005,0.108l0 0.834c0,0.155 -0.126,0.282 -0.281,0.282l-2.178 0c-0.148,0 -0.269,0.123 -0.269,0.275l0 2.988c0,0.054 -0.028,0.1 -0.076,0.125 -0.048,0.025 -0.102,0.021 -0.146,-0.01l-1.018 -0.716c-0.072,-0.051 -0.149,-0.093 -0.228,-0.127 -0.054,-0.022 -0.086,-0.071 -0.086,-0.129l0 -2.629c0,-0.719 0.577,-1.308 1.284,-1.308zm0.27 11.585l0 2.989c0,0.151 0.121,0.275 0.269,0.275l2.178 0c0.155,0 0.281,0.126 0.281,0.281l0 0.835c0,0.035 0.002,0.071 0.005,0.108 0.007,0.081 -0.017,0.154 -0.073,0.215 -0.055,0.06 -0.125,0.091 -0.207,0.091l-2.723 0c-0.706,0 -1.284,-0.588 -1.284,-1.308l0 -2.628c0,-0.058 0.032,-0.107 0.086,-0.13 0.079,-0.033 0.156,-0.076 0.228,-0.126l1.018 -0.717c0.044,-0.031 0.098,-0.034 0.146,-0.009 0.048,0.024 0.076,0.071 0.076,0.124zm5.825 -4.161c0.423,0 0.766,0.343 0.766,0.766 0,0.423 -0.343,0.766 -0.766,0.766 -0.423,0 -0.766,-0.343 -0.766,-0.766 0,-0.423 0.343,-0.766 0.766,-0.766z"/></g></svg>