<svg width="1953" height="1949" viewBox="0 0 1953 1949" fill="none" xmlns="http://www.w3.org/2000/svg">
<path d="M651 845V944M1301 845V944M651 1043V944M1301 1043V944M651 944H752.25M1301 944H1199.75M1199.75 944H752.25M1199.75 944V1073M1199.75 944V815M752.25 944V1073M752.25 944V815"/>
<path d="M976.5 31.5C1498.47 31.5 1921.5 453.756 1921.5 974.5C1921.5 1495.24 1498.47 1917.5 976.5 1917.5C454.53 1917.5 31.5 1495.24 31.5 974.5C31.5 453.756 454.53 31.5 976.5 31.5Z"/>
<path d="M1475.5 566.836V1578H1184.5V1251H767.5V1578H476.5V566.836L976 313.323L1475.5 566.836Z"/>
</svg>
