<svg xmlns="http://www.w3.org/2000/svg" version="1.1" viewBox="0 0 100 100">
 <path d="m82.352 3.1992h-64.703c-1.2109 0-2.3086 0.49609-3.1094 1.2969l-0.007812-0.007813c-0.79688 0.80078-1.2891 1.9023-1.2891 3.1172v84.785c0 2.4375 1.9961 4.4062 4.4062 4.4062h64.703c1.2109 0 2.3086-0.49609 3.1094-1.2969l0.007812 0.007812c0.79688-0.80078 1.2891-1.9023 1.2891-3.1172v-84.785c0-2.4375-1.9961-4.4062-4.4062-4.4062zm-48.863 16.219c2.6797-2.6797 6.7539 1.3906 4.0703 4.0703l-8.0625 8.0625c-1.125 1.125-2.9492 1.125-4.0703 0l-3.5664-3.5664c-2.6797-2.6797 1.3906-6.7539 4.0703-4.0703l1.5273 1.5273zm0 24.516c2.6797-2.6797 6.7539 1.3906 4.0703 4.0703l-8.0625 8.0625c-1.125 1.125-2.9492 1.125-4.0703 0l-3.5664-3.5664c-2.6797-2.6797 1.3906-6.7539 4.0703-4.0703l1.5273 1.5273zm12.688 10.316c-3.793 0-3.793-5.7617 0-5.7617h29.93c3.793 0 3.793 5.7617 0 5.7617zm-12.688 14.195c2.6797-2.6797 6.7539 1.3906 4.0703 4.0703l-8.0625 8.0625c-1.125 1.125-2.9492 1.125-4.0703 0l-3.5664-3.5625c-2.6797-2.6797 1.3906-6.7539 4.0703-4.0703l1.5273 1.5273zm12.688 10.32c-3.793 0-3.793-5.7617 0-5.7617h29.93c3.793 0 3.793 5.7617 0 5.7617zm0-49.031c-3.793 0-3.793-5.7617 0-5.7617h29.93c3.793 0 3.793 5.7617 0 5.7617z" fill-rule="evenodd"/>
</svg>