<svg width="1780" height="1984" viewBox="0 0 1780 1984" fill="none" xmlns="http://www.w3.org/2000/svg">
<path d="M1767.56 1874.12C1775.84 1852 1779.97 1828.03 1779.97 1802.22V992C1779.97 967.113 1775.84 944.069 1767.56 922.869C1759.29 900.746 1747.7 881.39 1732.81 864.798C1718.74 848.206 1701.77 835.302 1681.91 826.084C1662.05 815.945 1640.54 810.875 1617.37 810.875H598.29V1173.12H1111.7V992L1566.49 1374.99L1111.7 1775.95V1623.86H453.062C411.686 1623.86 379.413 1611.42 356.243 1586.53C333.9 1560.72 322.729 1524.77 322.729 1478.69V508.079C322.729 459.226 333.9 422.356 356.243 397.468C378.586 372.581 410.859 360.137 453.062 360.137H1765.08V0.652832H453.062C397.619 0.652832 347.968 8.48775 304.11 24.1576C260.252 39.8274 221.359 61.0278 187.431 87.7587C154.331 113.568 125.782 143.525 101.784 177.63C77.786 211.735 58.3395 247.683 43.4443 285.475C28.5491 322.345 17.3777 360.137 9.93014 398.851C3.31006 436.643 0 472.13 0 505.314V1478.69C0 1540.44 7.03381 1596.21 21.1015 1645.99C35.1692 1694.84 53.7882 1738.16 76.9585 1775.95C100.956 1812.82 128.264 1844.62 158.882 1871.35C189.5 1897.16 221.359 1918.36 254.459 1934.96C288.387 1951.55 322.315 1963.99 356.243 1972.29C390.999 1979.66 423.271 1983.35 453.062 1983.35H1617.37C1640.54 1983.35 1662.05 1978.74 1681.91 1969.52C1701.77 1960.3 1718.74 1947.86 1732.81 1932.19C1747.7 1915.6 1759.29 1896.24 1767.56 1874.12Z"/>
</svg>
