<svg xmlns="http://www.w3.org/2000/svg" version="1.1" viewBox="0 0 100 100">
 <path d="m90 87.035c0 1.6367-1.3281 2.9648-2.9648 2.9648h-74.07c-1.6367 0-2.9648-1.3281-2.9648-2.9648v-74.07c0-1.6367 1.3281-2.9648 2.9648-2.9648 1.6328 0 2.9609 1.3281 2.9609 2.9648v71.109h71.109c1.6367 0 2.9648 1.3281 2.9648 2.9609zm-51.922-49.734v36.551c-0.015625 0.79688 0.29297 1.5625 0.84766 2.1289 0.55859 0.57031 1.3203 0.89062 2.1172 0.89062 0.79297 0 1.5547-0.32031 2.1133-0.89062 0.55859-0.56641 0.86328-1.332 0.84766-2.1289v-36.551c0.015625-0.79688-0.28906-1.5625-0.84766-2.1328-0.55859-0.56641-1.3203-0.88672-2.1133-0.88672-0.79688 0-1.5586 0.32031-2.1172 0.88672-0.55469 0.57031-0.86328 1.3359-0.84766 2.1328zm12.965 12.883v23.668c-0.015625 0.79688 0.28906 1.5625 0.84766 2.1289 0.55859 0.57031 1.3203 0.89062 2.1133 0.89062 0.79688 0 1.5586-0.32031 2.1133-0.89062 0.55859-0.56641 0.86328-1.332 0.85156-2.1289v-23.668c-0.03125-1.6133-1.3477-2.9062-2.9648-2.9062-1.6133 0-2.9336 1.293-2.9609 2.9062zm-25.926 8.2617v15.406c0 1.6367 1.3242 2.9648 2.9609 2.9648s2.9648-1.3281 2.9648-2.9648v-15.406c0-1.6367-1.3281-2.9648-2.9648-2.9648s-2.9609 1.3281-2.9609 2.9648zm38.883-27.965v43.371c0 1.6367 1.3281 2.9648 2.9648 2.9648 1.6328 0 2.9609-1.3281 2.9609-2.9648v-43.371c0-1.6367-1.3281-2.9609-2.9609-2.9609-1.6367 0-2.9648 1.3242-2.9648 2.9609z"/>
</svg>