<svg width="9502" height="2040" viewBox="0 0 9502 2040" fill="none" xmlns="http://www.w3.org/2000/svg">
<path d="M2990.05 241.852C2991.84 241.219 2993.87 240.906 2996.14 240.911L2995.66 268.97C2993.43 268.865 2991.44 268.449 2989.71 267.723C2987.95 266.996 2986.47 266.008 2985.27 264.76C2984.04 263.545 2983.11 262.085 2982.48 260.383C2981.85 258.68 2981.56 256.784 2981.59 254.694C2981.63 252.572 2981.99 250.654 2982.68 248.94C2983.33 247.26 2984.28 245.816 2985.51 244.61C2986.75 243.437 2988.26 242.518 2990.05 241.852Z" stroke="black"/>
<path d="M3155.22 261.314C3152.55 260.96 3150.26 260.909 3148.37 261.161C3146.48 261.446 3144.93 261.961 3143.74 262.707C3142.52 263.448 3141.6 264.364 3141 265.455C3140.36 266.542 3139.96 267.71 3139.79 268.96C3139.63 270.209 3139.72 271.442 3140.06 272.658C3140.37 273.869 3141.02 274.976 3142.02 275.978C3142.98 277.008 3144.34 277.907 3146.1 278.675C3147.85 279.442 3150.07 280.003 3152.75 280.356L3155.73 280.751L3158.26 261.715L3155.22 261.314Z" stroke="black"/>
<path d="M3159.48 228.556C3156.58 228.172 3154.09 228.161 3152.02 228.523C3149.95 228.885 3148.22 229.527 3146.84 230.448C3145.46 231.37 3144.4 232.518 3143.66 233.891C3142.91 235.298 3142.43 236.84 3142.21 238.517C3142.02 239.997 3142.12 241.483 3142.53 242.975C3142.93 244.467 3143.65 245.833 3144.68 247.074C3145.68 248.343 3146.98 249.419 3148.59 250.3C3150.2 251.215 3152.11 251.819 3154.33 252.113L3159.42 252.785L3162.51 228.957L3159.48 228.556Z" stroke="black"/>
<path d="M3441.89 359.113C3440.05 357.77 3438.23 356.829 3436.41 356.289C3434.57 355.775 3432.81 355.63 3431.13 355.852C3429.42 356.101 3427.82 356.715 3426.31 357.694C3424.76 358.679 3423.36 360.022 3422.1 361.723C3420.86 363.398 3420 365.111 3419.52 366.864C3419.05 368.616 3418.96 370.348 3419.25 372.059C3419.5 373.777 3420.13 375.45 3421.14 377.08C3422.12 378.69 3423.49 380.196 3425.24 381.599L3441.89 359.113Z" stroke="black"/>
<path d="M3534.54 475.495C3533.09 473.199 3531.66 471.401 3530.26 470.1C3528.83 468.818 3527.44 467.954 3526.11 467.511C3524.76 467.04 3523.48 466.92 3522.26 467.151C3521.02 467.353 3519.88 467.793 3518.82 468.469C3517.77 469.145 3516.89 470.005 3516.18 471.048C3515.45 472.062 3515.03 473.277 3514.91 474.691C3514.74 476.096 3514.93 477.724 3515.48 479.576C3516.02 481.429 3517.01 483.502 3518.46 485.798L3520.08 488.359L3536.18 478.098L3534.54 475.495Z" stroke="black"/>
<path d="M3562.19 457.771C3560.62 455.28 3559.03 453.349 3557.43 451.98C3555.82 450.61 3554.23 449.687 3552.64 449.211C3551.05 448.734 3549.5 448.649 3547.98 448.957C3546.43 449.281 3544.95 449.898 3543.53 450.805C3542.28 451.606 3541.22 452.641 3540.34 453.91C3539.47 455.179 3538.89 456.611 3538.61 458.206C3538.28 459.791 3538.3 461.489 3538.66 463.301C3539 465.13 3539.76 466.996 3540.96 468.9L3543.72 473.267L3563.83 460.374L3562.19 457.771Z" stroke="black"/>
<path d="M3634.79 766.976C3634.48 764.709 3633.88 762.728 3633.01 761.033C3632.1 759.342 3630.99 757.962 3629.66 756.892C3628.3 755.827 3626.75 755.086 3625.01 754.671C3623.23 754.227 3621.29 754.136 3619.21 754.4C3617.15 754.659 3615.33 755.223 3613.75 756.091C3612.16 756.959 3610.86 758.093 3609.84 759.492C3608.78 760.862 3608.02 762.479 3607.56 764.343C3607.09 766.174 3606.96 768.212 3607.17 770.459L3634.79 766.976Z" stroke="black"/>
<path d="M3636.77 929.389C3636.71 926.67 3636.42 924.387 3635.88 922.54C3635.32 920.695 3634.58 919.234 3633.67 918.159C3632.76 917.05 3631.72 916.276 3630.56 915.837C3629.4 915.364 3628.19 915.141 3626.94 915.168C3625.69 915.195 3624.5 915.469 3623.36 915.992C3622.22 916.481 3621.23 917.298 3620.4 918.444C3619.53 919.557 3618.86 921.048 3618.37 922.917C3617.88 924.785 3617.67 927.079 3617.73 929.799L3617.79 932.833L3636.83 932.473L3636.77 929.389Z" stroke="black"/>
<path d="M3669.53 928.685C3669.47 925.733 3669.1 923.253 3668.43 921.243C3667.77 919.234 3666.88 917.611 3665.76 916.374C3664.65 915.137 3663.37 914.252 3661.91 913.719C3660.41 913.187 3658.83 912.94 3657.15 912.976C3655.67 913.007 3654.23 913.337 3652.83 913.964C3651.43 914.592 3650.2 915.514 3649.14 916.731C3648.04 917.916 3647.19 919.378 3646.56 921.116C3645.91 922.856 3645.61 924.853 3645.65 927.108L3645.76 932.281L3669.59 931.769L3669.53 928.685Z" stroke="black"/>
<path d="M2713.38 1851.96C2711.59 1852.6 2709.57 1852.91 2707.29 1852.9L2707.77 1824.84C2710.01 1824.95 2711.99 1825.36 2713.72 1826.09C2715.49 1826.82 2716.97 1827.81 2718.16 1829.05C2719.39 1830.27 2720.32 1831.73 2720.95 1833.43C2721.58 1835.13 2721.88 1837.03 2721.84 1839.12C2721.81 1841.24 2721.44 1843.16 2720.76 1844.87C2720.1 1846.55 2719.16 1848 2717.92 1849.2C2716.68 1850.38 2715.17 1851.3 2713.38 1851.96Z" stroke="black"/>
<path d="M2555.06 1832.65C2553.17 1832.9 2550.89 1832.85 2548.21 1832.5L2545.18 1832.1L2547.7 1813.06L2550.69 1813.46C2553.36 1813.81 2555.58 1814.37 2557.34 1815.14C2559.1 1815.91 2560.45 1816.81 2561.42 1817.84C2562.41 1818.84 2563.07 1819.94 2563.37 1821.16C2563.71 1822.37 2563.8 1823.6 2563.64 1824.85C2563.48 1826.1 2563.08 1827.27 2562.44 1828.36C2561.83 1829.45 2560.91 1830.37 2559.69 1831.11C2558.5 1831.85 2556.95 1832.37 2555.06 1832.65Z" stroke="black"/>
<path d="M2551.41 1865.29C2549.34 1865.65 2546.86 1865.64 2543.95 1865.26L2540.92 1864.86L2544.02 1841.03L2549.11 1841.7C2551.32 1841.99 2553.24 1842.6 2554.84 1843.51C2556.45 1844.4 2557.76 1845.47 2558.75 1846.74C2559.79 1847.98 2560.5 1849.35 2560.91 1850.84C2561.31 1852.33 2561.42 1853.82 2561.22 1855.3C2561.01 1856.97 2560.52 1858.52 2559.78 1859.92C2559.03 1861.3 2557.97 1862.44 2556.59 1863.37C2555.21 1864.29 2553.48 1864.93 2551.41 1865.29Z" stroke="black"/>
<path d="M2267.03 1737.53C2265.21 1736.99 2263.38 1736.04 2261.54 1734.7L2278.19 1712.22C2279.95 1713.62 2281.31 1715.12 2282.3 1716.73C2283.31 1718.36 2283.94 1720.04 2284.18 1721.76C2284.48 1723.47 2284.39 1725.2 2283.91 1726.95C2283.43 1728.7 2282.57 1730.42 2281.33 1732.09C2280.07 1733.79 2278.67 1735.13 2277.12 1736.12C2275.61 1737.1 2274.01 1737.71 2272.31 1737.96C2270.62 1738.18 2268.86 1738.04 2267.03 1737.53Z" stroke="black"/>
<path d="M2173.17 1623.71C2171.77 1622.41 2170.34 1620.61 2168.9 1618.32L2167.25 1615.72L2183.36 1605.45L2184.97 1608.02C2186.42 1610.31 2187.41 1612.39 2187.96 1614.24C2188.5 1616.09 2188.69 1617.72 2188.52 1619.12C2188.4 1620.54 2187.98 1621.75 2187.25 1622.77C2186.55 1623.81 2185.67 1624.67 2184.61 1625.34C2183.56 1626.02 2182.41 1626.46 2181.17 1626.66C2179.95 1626.89 2178.67 1626.77 2177.32 1626.3C2175.99 1625.86 2174.61 1625 2173.17 1623.71Z" stroke="black"/>
<path d="M2146.01 1641.83C2144.4 1640.46 2142.81 1638.53 2141.24 1636.04L2139.6 1633.44L2159.72 1620.55L2162.47 1624.91C2163.67 1626.82 2164.44 1628.68 2164.77 1630.51C2165.13 1632.33 2165.15 1634.02 2164.83 1635.61C2164.55 1637.2 2163.97 1638.64 2163.09 1639.9C2162.21 1641.17 2161.15 1642.21 2159.9 1643.01C2158.49 1643.92 2157 1644.53 2155.45 1644.86C2153.93 1645.16 2152.38 1645.08 2150.79 1644.6C2149.21 1644.13 2147.61 1643.2 2146.01 1641.83Z" stroke="black"/>
<path d="M2070.43 1332.78C2069.55 1331.09 2068.96 1329.11 2068.64 1326.84L2096.26 1323.36C2096.47 1325.6 2096.34 1327.64 2095.88 1329.47C2095.41 1331.33 2094.65 1332.95 2093.59 1334.32C2092.57 1335.72 2091.27 1336.85 2089.69 1337.72C2088.1 1338.59 2086.28 1339.15 2084.23 1339.41C2082.14 1339.68 2080.2 1339.59 2078.43 1339.14C2076.68 1338.73 2075.13 1337.99 2073.77 1336.92C2072.45 1335.85 2071.33 1334.47 2070.43 1332.78Z" stroke="black"/>
<path d="M2067.55 1171.27C2067.02 1169.43 2066.72 1167.14 2066.66 1164.42L2066.6 1161.34L2085.64 1160.98L2085.71 1164.02C2085.77 1166.73 2085.55 1169.03 2085.06 1170.9C2084.58 1172.77 2083.9 1174.26 2083.04 1175.37C2082.2 1176.52 2081.22 1177.33 2080.08 1177.82C2078.94 1178.34 2077.74 1178.62 2076.49 1178.65C2075.24 1178.67 2074.04 1178.45 2072.87 1177.98C2071.71 1177.54 2070.68 1176.76 2069.76 1175.66C2068.85 1174.58 2068.11 1173.12 2067.55 1171.27Z" stroke="black"/>
<path d="M2035 1172.57C2034.33 1170.56 2033.97 1168.08 2033.9 1165.13L2033.84 1162.05L2057.67 1161.53L2057.78 1166.71C2057.83 1168.96 2057.52 1170.96 2056.87 1172.7C2056.25 1174.44 2055.39 1175.9 2054.3 1177.08C2053.24 1178.3 2052 1179.22 2050.6 1179.85C2049.2 1180.48 2047.76 1180.81 2046.28 1180.84C2044.6 1180.87 2043.02 1180.63 2041.53 1180.09C2040.07 1179.56 2038.78 1178.68 2037.67 1177.44C2036.56 1176.2 2035.67 1174.58 2035 1172.57Z" stroke="black"/>
<path fill-rule="evenodd" clip-rule="evenodd" d="M3727.48 1542.64C3764.72 1441.24 3783.33 1330.17 3783.33 1209.42V830.579C3783.33 710.751 3764.72 600.141 3727.48 498.748C3690.24 396.433 3638.52 308.866 3572.32 236.048C3506.12 162.307 3427.5 104.697 3336.48 63.2185C3246.28 21.7395 3147.81 1 3041.06 1H2604.13C2497.38 1 2398.5 21.7395 2307.47 63.2185C2216.44 104.697 2137.83 162.307 2071.63 236.048C2005.43 308.866 1953.3 396.433 1915.23 498.748C1877.99 600.141 1859.37 710.751 1859.37 830.579V1209.42C1859.37 1330.17 1877.99 1441.24 1915.23 1542.64C1953.3 1644.03 2005.43 1731.59 2071.63 1805.34C2137.83 1879.08 2216.44 1936.69 2307.47 1978.16C2398.5 2018.72 2497.38 2039 2604.13 2039H3041.06C3147.81 2039 3246.28 2018.72 3336.48 1978.16C3427.5 1936.69 3506.12 1879.08 3572.32 1805.34C3638.52 1731.59 3690.24 1644.03 3727.48 1542.64ZM3429.57 638.394C3450.26 695.542 3460.61 759.604 3460.61 830.579V1209.42C3460.61 1280.4 3450.26 1344.92 3429.57 1402.99C3409.71 1460.14 3381.16 1509.45 3343.93 1550.93C3306.69 1591.49 3262 1623.29 3209.87 1646.33C3158.56 1668.45 3101.47 1679.52 3038.57 1679.52H2604.13C2541.24 1679.52 2483.73 1668.45 2431.6 1646.33C2380.29 1623.29 2336.02 1591.49 2298.78 1550.93C2261.54 1509.45 2232.58 1460.14 2211.89 1402.99C2192.03 1344.92 2182.1 1280.4 2182.1 1209.42V830.579C2182.1 759.604 2192.03 695.542 2211.89 638.394C2232.58 580.323 2261.54 531.009 2298.78 490.452C2336.02 448.973 2380.29 417.172 2431.6 395.05C2483.73 372.006 2541.24 360.484 2604.13 360.484H3041.06C3103.12 360.484 3159.81 372.006 3211.11 395.05C3263.24 417.172 3307.52 448.973 3343.93 490.452C3381.16 531.009 3409.71 580.323 3429.57 638.394ZM2988.72 279.699L3024 280.306L3025.25 206.379L2996.73 205.888L2996.32 230.066L2986.95 229.905C2980.89 229.801 2975.67 230.391 2971.27 231.675C2966.84 232.959 2963.19 234.721 2960.32 236.961C2957.42 239.2 2955.27 241.801 2953.88 244.762C2952.44 247.757 2951.7 250.895 2951.64 254.179C2951.58 257.927 2952.26 261.339 2953.69 264.416C2955.09 267.525 2957.29 270.2 2960.32 272.442C2963.34 274.684 2967.21 276.425 2971.92 277.668C2976.61 278.943 2982.21 279.62 2988.72 279.699ZM3036.67 280.748L3098.54 284.609L3103.07 210.813L3041.2 206.952L3040.51 218.324L3073.9 220.409L3072.69 240.174L3047.17 238.581L3046.47 249.954L3071.99 251.546L3070.72 271.457L3037.37 269.376L3036.67 280.748ZM3182.66 295.25L3144.2 290.167C3138.79 289.451 3134.12 288.366 3130.19 286.91C3126.24 285.45 3123.02 283.686 3120.53 281.618C3118.01 279.579 3116.22 277.268 3115.16 274.686C3114.1 272.137 3113.76 269.399 3114.14 266.472C3114.52 263.545 3115.69 260.89 3117.66 258.507C3119.59 256.153 3122.23 254.243 3125.57 252.778C3120.68 250.626 3117.16 247.953 3115.02 244.759C3112.88 241.566 3112.08 237.897 3112.62 233.753C3112.99 230.925 3114.03 228.285 3115.74 225.835C3117.42 223.381 3119.74 221.313 3122.72 219.632C3125.66 217.946 3129.23 216.746 3133.44 216.031C3137.64 215.349 3142.45 215.365 3147.86 216.081L3192.19 221.94L3182.66 295.25ZM3231.61 263.947L3264.54 272.073L3266.74 262.987L3233.81 254.861L3231.61 263.947ZM3367.12 290.97C3364.54 287.999 3361.65 285.383 3358.43 283.12C3355.22 280.857 3352.09 279.109 3349.04 277.875C3345.52 276.456 3342.76 275.928 3340.73 276.29C3338.68 276.64 3337.31 277.692 3336.61 279.447C3336.39 280.001 3336.27 280.614 3336.25 281.285C3336.2 281.944 3336.36 282.668 3336.72 283.457C3337.03 284.264 3337.59 285.148 3338.37 286.11C3339.12 287.09 3340.17 288.177 3341.54 289.373L3348.62 295.504C3353.68 299.905 3357 304.428 3358.59 309.074C3360.17 313.75 3360.01 318.474 3358.12 323.247C3356.89 326.326 3355.08 329.022 3352.67 331.337C3350.25 333.682 3347.31 335.408 3343.86 336.514C3340.39 337.652 3336.43 338.071 3331.98 337.773C3327.5 337.462 3322.6 336.233 3317.28 334.086C3314.66 333.025 3312.2 331.853 3309.91 330.57C3307.62 329.287 3305.52 327.974 3303.61 326.63C3301.67 325.274 3299.94 323.914 3298.42 322.552C3296.9 321.221 3295.59 319.975 3294.49 318.817L3303.01 311.81C3303.75 312.82 3304.57 313.779 3305.49 314.685C3306.37 315.578 3307.3 316.401 3308.28 317.153C3309.22 317.893 3310.19 318.55 3311.16 319.123C3312.14 319.697 3313.06 320.156 3313.91 320.502C3315.38 321.094 3316.74 321.412 3318 321.456C3319.24 321.531 3320.38 321.399 3321.4 321.061C3322.38 320.741 3323.22 320.261 3323.94 319.621C3324.61 318.999 3325.1 318.304 3325.41 317.534C3325.67 316.857 3325.78 316.133 3325.74 315.363C3325.65 314.611 3325.34 313.773 3324.82 312.849C3324.26 311.943 3323.48 310.93 3322.47 309.808C3321.42 308.705 3320.08 307.447 3318.44 306.036L3313.68 301.967C3308.52 297.56 3305.06 292.965 3303.31 288.184C3301.56 283.403 3301.68 278.519 3303.66 273.531C3305.01 270.144 3307.01 267.327 3309.68 265.081C3312.31 262.822 3315.54 261.25 3319.37 260.366C3323.18 259.512 3327.55 259.401 3332.47 260.032C3337.35 260.682 3342.72 262.192 3348.59 264.561C3351.4 265.696 3354.05 266.948 3356.56 268.317C3359.04 269.643 3361.42 271.104 3363.69 272.701C3365.93 274.286 3368.08 276.012 3370.14 277.88C3372.2 279.747 3374.19 281.769 3376.13 283.944L3367.12 290.97ZM3357.38 349.866L3382.46 363.67L3417.6 298.773L3392.56 284.993L3357.38 349.866ZM3441.66 407.496L3413.39 386.212C3408.15 382.31 3404 378.461 3400.94 374.666C3397.83 370.878 3395.7 367.184 3394.55 363.585C3393.39 359.985 3393.15 356.512 3393.82 353.167C3394.45 349.829 3395.87 346.658 3398.1 343.655C3400.05 341.023 3402.47 338.915 3405.37 337.33C3408.22 335.751 3411.47 334.908 3415.12 334.801C3418.75 334.673 3422.73 335.394 3427.07 336.964C3431.38 338.513 3435.96 341.114 3440.81 344.765L3448.33 350.421L3462.68 331.045L3485.53 348.25L3441.66 407.496ZM3443.14 408.383L3485.24 454.244L3539.06 404.017L3496.95 358.156L3488.66 365.897L3511.39 390.652L3496.97 404.105L3479.61 385.191L3471.32 392.931L3488.68 411.845L3474.13 425.362L3451.43 400.643L3443.14 408.383ZM3526.33 518.491L3505.52 485.486C3502.59 480.839 3500.42 476.531 3499.01 472.562C3497.58 468.564 3496.85 464.941 3496.83 461.693C3496.77 458.434 3497.38 455.567 3498.66 453.092C3499.92 450.635 3501.78 448.615 3504.25 447.031C3506.72 445.447 3509.5 444.652 3512.57 444.646C3515.6 444.63 3518.75 445.444 3522.01 447.089C3520.5 441.921 3520.28 437.486 3521.34 433.782C3522.39 430.078 3524.67 427.106 3528.17 424.863C3530.56 423.333 3533.23 422.444 3536.19 422.196C3539.14 421.92 3542.2 422.392 3545.39 423.613C3548.56 424.805 3551.77 426.798 3555.01 429.593C3558.22 432.406 3561.3 436.136 3564.23 440.783L3588.21 478.826L3526.33 518.491ZM3578.37 534.748L3591.01 566.465L3599.62 562.978L3586.98 531.26L3578.37 534.748ZM3636.57 663.192C3637.43 659.342 3637.81 655.442 3637.73 651.492C3637.65 647.543 3637.2 643.961 3636.38 640.747C3635.44 637.051 3634.23 634.487 3632.75 633.055C3631.26 631.591 3629.6 631.092 3627.79 631.561C3627.21 631.708 3626.65 631.973 3626.1 632.354C3625.55 632.703 3625.06 633.257 3624.64 634.015C3624.18 634.749 3623.8 635.721 3623.5 636.929C3623.15 638.114 3622.9 639.615 3622.75 641.434L3622.02 650.815C3621.48 657.528 3619.82 662.902 3617.04 666.94C3614.23 670.985 3610.36 673.644 3605.42 674.917C3602.23 675.739 3599 675.852 3595.72 675.258C3592.42 674.672 3589.3 673.301 3586.38 671.144C3583.42 668.996 3580.75 666.021 3578.36 662.22C3575.96 658.387 3574.06 653.675 3572.64 648.083C3571.94 645.319 3571.42 642.627 3571.1 640.006C3570.78 637.385 3570.59 634.9 3570.54 632.551C3570.47 630.17 3570.54 627.961 3570.74 625.924C3570.9 623.896 3571.13 622.093 3571.41 620.515L3582.05 623.319C3581.67 624.511 3581.39 625.748 3581.21 627.028C3581.01 628.276 3580.9 629.519 3580.88 630.758C3580.84 631.965 3580.89 633.136 3581 634.269C3581.12 635.403 3581.29 636.42 3581.52 637.32C3581.91 638.862 3582.46 640.159 3583.17 641.209C3583.85 642.267 3584.62 643.112 3585.49 643.743C3586.33 644.35 3587.21 644.756 3588.15 644.96C3589.04 645.14 3589.89 645.128 3590.68 644.922C3591.38 644.742 3592.03 644.404 3592.62 643.911C3593.16 643.393 3593.66 642.65 3594.09 641.682C3594.48 640.691 3594.83 639.454 3595.13 637.972C3595.4 636.466 3595.61 634.631 3595.78 632.466L3596.22 626.188C3596.71 619.388 3598.35 613.864 3601.14 609.617C3603.93 605.371 3607.91 602.582 3613.08 601.252C3616.58 600.348 3620.02 600.318 3623.39 601.161C3626.76 601.972 3629.92 603.673 3632.89 606.264C3635.82 608.863 3638.49 612.353 3640.89 616.733C3643.25 621.089 3645.21 626.352 3646.78 632.522C3647.52 635.479 3648.09 638.38 3648.47 641.226C3648.88 644.032 3649.11 646.83 3649.17 649.622C3649.23 652.381 3649.11 655.149 3648.83 657.926C3648.55 660.703 3648.11 663.521 3647.51 666.381L3636.57 663.192ZM3584.62 692.681L3589.78 721.017L3661.91 707.673L3656.76 679.386L3584.62 692.681ZM3600.04 800.342L3595.66 765.041C3594.82 758.528 3594.69 752.844 3595.28 747.99C3595.84 743.106 3597 738.998 3598.78 735.665C3600.55 732.332 3602.87 729.75 3605.73 727.919C3608.54 726.059 3611.8 724.897 3615.49 724.431C3618.72 724.024 3621.91 724.324 3625.05 725.332C3628.15 726.311 3631.01 728.09 3633.62 730.669C3636.22 733.216 3638.47 736.61 3640.35 740.852C3642.23 745.061 3643.55 750.193 3644.3 756.249L3645.46 765.63L3669.26 762.628L3672.8 791.165L3600.04 800.342ZM3601.24 812.075L3605.44 874.425L3678.6 869.42L3674.41 807.07L3663.13 807.841L3665.39 841.499L3645.8 842.839L3644.07 817.124L3632.79 817.896L3634.52 843.61L3614.78 844.911L3612.52 811.303L3601.24 812.075ZM3607.64 961.866L3606.82 922.767C3606.7 917.262 3607.06 912.443 3607.89 908.312C3608.73 904.146 3609.97 900.669 3611.62 897.88C3613.24 895.058 3615.23 892.925 3617.61 891.48C3619.94 890.037 3622.58 889.283 3625.51 889.22C3628.43 889.157 3631.21 889.927 3633.85 891.529C3636.45 893.099 3638.72 895.439 3640.66 898.549C3642.03 893.344 3644.12 889.434 3646.93 886.819C3649.73 884.204 3653.21 882.852 3657.35 882.763C3660.18 882.702 3662.93 883.34 3665.59 884.676C3668.25 885.979 3670.63 887.985 3672.72 890.694C3674.82 893.369 3676.54 896.75 3677.87 900.835C3679.18 904.921 3679.89 909.717 3680 915.222L3680.96 960.29L3607.64 961.866ZM2714.71 1814.12L2679.43 1813.51L2678.18 1887.43L2706.7 1887.93L2707.11 1863.75L2716.49 1863.91C2722.54 1864.01 2727.76 1863.42 2732.16 1862.14C2736.59 1860.85 2740.24 1859.09 2743.11 1856.85C2746.01 1854.61 2748.16 1852.01 2749.56 1849.05C2750.99 1846.06 2751.74 1842.92 2751.79 1839.64C2751.85 1835.89 2751.17 1832.48 2749.74 1829.4C2748.35 1826.29 2746.14 1823.61 2743.12 1821.37C2740.1 1819.13 2736.23 1817.39 2731.51 1816.15C2726.83 1814.87 2721.23 1814.19 2714.71 1814.12ZM2604.9 1809.2L2666.76 1813.07L2666.06 1824.44L2632.72 1822.36L2631.45 1842.27L2656.96 1843.86L2656.26 1855.23L2630.75 1853.64L2629.53 1873.41L2662.93 1875.49L2662.23 1886.86L2600.37 1883L2604.9 1809.2ZM2559.23 1803.65L2520.77 1798.56L2511.24 1871.87L2555.57 1877.73C2560.98 1878.45 2565.79 1878.47 2570 1877.78C2574.2 1877.07 2577.78 1875.87 2580.72 1874.18C2583.69 1872.5 2586.02 1870.43 2587.69 1867.98C2589.41 1865.53 2590.45 1862.89 2590.81 1860.06C2591.35 1855.92 2590.55 1852.25 2588.41 1849.05C2586.27 1845.86 2582.76 1843.19 2577.86 1841.04C2581.2 1839.57 2583.84 1837.66 2585.77 1835.31C2587.74 1832.92 2588.91 1830.27 2589.29 1827.34C2589.68 1824.42 2589.33 1821.68 2588.27 1819.13C2587.21 1816.55 2585.42 1814.24 2582.9 1812.2C2580.42 1810.13 2577.2 1808.36 2573.24 1806.9C2569.31 1805.45 2564.64 1804.36 2559.23 1803.65ZM2438.9 1821.74L2471.83 1829.87L2469.62 1838.95L2436.69 1830.83L2438.9 1821.74ZM2345 1810.69C2341.79 1808.43 2338.89 1805.81 2336.32 1802.84L2327.3 1809.87C2329.24 1812.05 2331.24 1814.07 2333.29 1815.93C2335.35 1817.8 2337.5 1819.53 2339.74 1821.11C2342.01 1822.71 2344.39 1824.17 2346.88 1825.5C2349.38 1826.87 2352.04 1828.12 2354.85 1829.25C2360.71 1831.62 2366.08 1833.13 2370.96 1833.78C2375.89 1834.41 2380.25 1834.3 2384.07 1833.45C2387.89 1832.56 2391.12 1830.99 2393.76 1828.73C2396.42 1826.49 2398.43 1823.67 2399.77 1820.28C2401.76 1815.3 2401.87 1810.41 2400.12 1805.63C2398.37 1800.85 2394.92 1796.25 2389.76 1791.85L2384.99 1787.78C2383.36 1786.37 2382.01 1785.11 2380.96 1784.01C2379.96 1782.88 2379.17 1781.87 2378.61 1780.96C2378.09 1780.04 2377.79 1779.2 2377.7 1778.45C2377.65 1777.68 2377.76 1776.96 2378.03 1776.28C2378.33 1775.51 2378.82 1774.81 2379.5 1774.19C2380.21 1773.55 2381.06 1773.07 2382.03 1772.75C2383.06 1772.42 2384.19 1772.28 2385.43 1772.36C2386.69 1772.4 2388.06 1772.72 2389.52 1773.31C2390.38 1773.66 2391.29 1774.12 2392.27 1774.69C2393.25 1775.26 2394.21 1775.92 2395.15 1776.66C2396.13 1777.41 2397.06 1778.24 2397.95 1779.13C2398.86 1780.04 2399.69 1780.99 2400.42 1782L2408.95 1775C2407.85 1773.84 2406.54 1772.59 2405.01 1771.26C2403.49 1769.9 2401.77 1768.54 2399.82 1767.18C2397.91 1765.84 2395.81 1764.53 2393.52 1763.24C2391.23 1761.96 2388.77 1760.79 2386.15 1759.73C2380.83 1757.58 2375.94 1756.35 2371.45 1756.04C2367 1755.74 2363.04 1756.16 2359.58 1757.3C2356.12 1758.41 2353.19 1760.13 2350.77 1762.48C2348.36 1764.79 2346.54 1767.49 2345.32 1770.57C2343.42 1775.34 2343.26 1780.06 2344.84 1784.74C2346.43 1789.39 2349.76 1793.91 2354.81 1798.31L2361.89 1804.44C2363.26 1805.64 2364.32 1806.72 2365.06 1807.7C2365.85 1808.67 2366.4 1809.55 2366.72 1810.36C2367.08 1811.15 2367.23 1811.87 2367.18 1812.53C2367.16 1813.2 2367.04 1813.81 2366.82 1814.37C2366.13 1816.12 2364.75 1817.17 2362.7 1817.52C2360.68 1817.89 2357.91 1817.36 2354.4 1815.94C2351.34 1814.71 2348.21 1812.96 2345 1810.69ZM2320.97 1730.14L2346.05 1743.95L2310.87 1808.82L2285.83 1795.04L2320.97 1730.14ZM2290.05 1707.6L2261.77 1686.32L2217.9 1745.56L2240.76 1762.77L2255.11 1743.39L2262.62 1749.05C2267.47 1752.7 2272.05 1755.3 2276.36 1756.85C2280.7 1758.42 2284.69 1759.14 2288.31 1759.01C2291.96 1758.91 2295.21 1758.06 2298.07 1756.48C2300.96 1754.9 2303.39 1752.79 2305.34 1750.16C2307.56 1747.16 2308.98 1743.99 2309.61 1740.65C2310.28 1737.3 2310.04 1733.83 2308.89 1730.23C2307.73 1726.63 2305.6 1722.94 2302.5 1719.15C2299.44 1715.35 2295.28 1711.5 2290.05 1707.6ZM2218.19 1639.57L2260.3 1685.43L2252 1693.17L2229.31 1668.45L2214.75 1681.97L2232.12 1700.88L2223.82 1708.62L2206.46 1689.71L2192.05 1703.16L2214.78 1727.92L2206.48 1735.66L2164.38 1689.8L2218.19 1639.57ZM2197.91 1608.33L2177.11 1575.32L2115.22 1614.99L2139.21 1653.03C2142.14 1657.68 2145.21 1661.41 2148.42 1664.22C2151.67 1667.02 2154.87 1669.01 2158.04 1670.2C2161.23 1671.42 2164.29 1671.89 2167.24 1671.62C2170.2 1671.37 2172.88 1670.48 2175.26 1668.95C2178.76 1666.71 2181.04 1663.74 2182.1 1660.03C2183.15 1656.33 2182.93 1651.89 2181.43 1646.72C2184.68 1648.37 2187.83 1649.18 2190.86 1649.17C2193.94 1649.16 2196.71 1648.37 2199.18 1646.78C2201.65 1645.2 2203.51 1643.18 2204.77 1640.72C2206.06 1638.25 2206.67 1635.38 2206.6 1632.12C2206.58 1628.87 2205.85 1625.25 2204.43 1621.25C2203.02 1617.28 2200.84 1612.97 2197.91 1608.33ZM2112.43 1527.35L2125.07 1559.07L2116.46 1562.55L2103.82 1530.84L2112.43 1527.35ZM2065.7 1442.32C2065.62 1438.37 2066.01 1434.47 2066.86 1430.62L2055.92 1427.43C2055.32 1430.29 2054.88 1433.11 2054.6 1435.89C2054.32 1438.67 2054.2 1441.43 2054.26 1444.19C2054.32 1446.98 2054.56 1449.78 2054.96 1452.59C2055.34 1455.43 2055.91 1458.34 2056.66 1461.29C2058.22 1467.46 2060.18 1472.73 2062.54 1477.08C2064.95 1481.46 2067.61 1484.95 2070.55 1487.55C2073.51 1490.14 2076.68 1491.84 2080.04 1492.65C2083.41 1493.5 2086.85 1493.47 2090.36 1492.56C2095.52 1491.23 2099.5 1488.44 2102.29 1484.2C2105.09 1479.95 2106.73 1474.43 2107.21 1467.63L2107.66 1461.35C2107.82 1459.18 2108.04 1457.35 2108.3 1455.84C2108.6 1454.36 2108.95 1453.12 2109.34 1452.13C2109.78 1451.16 2110.27 1450.42 2110.82 1449.9C2111.4 1449.41 2112.05 1449.07 2112.75 1448.89C2113.55 1448.69 2114.39 1448.67 2115.29 1448.85C2116.22 1449.06 2117.11 1449.46 2117.94 1450.07C2118.81 1450.7 2119.59 1451.55 2120.26 1452.61C2120.97 1453.66 2121.52 1454.95 2121.91 1456.49C2122.14 1457.39 2122.31 1458.41 2122.43 1459.54C2122.55 1460.68 2122.59 1461.85 2122.55 1463.06C2122.53 1464.29 2122.42 1465.54 2122.23 1466.79C2122.04 1468.07 2121.76 1469.3 2121.38 1470.5L2132.03 1473.3C2132.31 1471.72 2132.53 1469.92 2132.69 1467.89C2132.89 1465.85 2132.96 1463.64 2132.9 1461.26C2132.85 1458.91 2132.66 1456.43 2132.33 1453.81C2132.01 1451.19 2131.5 1448.5 2130.79 1445.73C2129.38 1440.14 2127.47 1435.43 2125.07 1431.59C2122.68 1427.79 2120.01 1424.82 2117.05 1422.67C2114.13 1420.51 2111.02 1419.14 2107.71 1418.56C2104.44 1417.96 2101.2 1418.08 2098.02 1418.9C2093.08 1420.17 2089.2 1422.83 2086.39 1426.87C2083.61 1430.91 2081.95 1436.29 2081.41 1443L2080.68 1452.38C2080.53 1454.2 2080.28 1455.7 2079.94 1456.88C2079.63 1458.09 2079.25 1459.06 2078.79 1459.8C2078.37 1460.56 2077.89 1461.11 2077.33 1461.46C2076.78 1461.84 2076.22 1462.11 2075.65 1462.25C2073.83 1462.72 2072.17 1462.22 2070.68 1460.76C2069.2 1459.33 2067.99 1456.76 2067.05 1453.07C2066.24 1449.85 2065.79 1446.27 2065.7 1442.32ZM2113.65 1372.8L2118.81 1401.13L2046.68 1414.43L2041.53 1386.14L2113.65 1372.8ZM2107.77 1328.77L2103.39 1293.47L2030.63 1302.65L2034.17 1331.19L2057.97 1328.18L2059.13 1337.56C2059.88 1343.62 2061.2 1348.75 2063.08 1352.96C2064.97 1357.2 2067.21 1360.6 2069.82 1363.14C2072.42 1365.72 2075.28 1367.5 2078.39 1368.48C2081.53 1369.49 2084.71 1369.79 2087.95 1369.38C2091.63 1368.92 2094.89 1367.75 2097.71 1365.89C2100.56 1364.06 2102.88 1361.48 2104.65 1358.15C2106.43 1354.82 2107.59 1350.71 2108.15 1345.82C2108.74 1340.97 2108.62 1335.29 2107.77 1328.77ZM2098 1219.39L2102.19 1281.74L2090.92 1282.51L2088.65 1248.9L2068.91 1250.2L2070.64 1275.92L2059.36 1276.69L2057.63 1250.98L2038.04 1252.32L2040.3 1285.97L2029.03 1286.74L2024.83 1224.39L2098 1219.39ZM2096.62 1171.05L2095.79 1131.95L2022.48 1133.52L2023.43 1178.59C2023.55 1184.1 2024.26 1188.89 2025.56 1192.98C2026.9 1197.06 2028.61 1200.44 2030.71 1203.12C2032.81 1205.83 2035.19 1207.84 2037.85 1209.14C2040.51 1210.47 2043.25 1211.11 2046.08 1211.05C2050.22 1210.96 2053.7 1209.61 2056.51 1207C2059.32 1204.38 2061.4 1200.47 2062.78 1195.26C2064.72 1198.37 2066.99 1200.71 2069.59 1202.28C2072.22 1203.89 2075 1204.66 2077.93 1204.59C2080.86 1204.53 2083.49 1203.78 2085.83 1202.33C2088.2 1200.89 2090.19 1198.76 2091.81 1195.93C2093.46 1193.14 2094.71 1189.67 2095.54 1185.5C2096.37 1181.37 2096.73 1176.55 2096.62 1171.05Z" stroke="black"/>
<path d="M1768.56 1902.12C1776.84 1880 1780.97 1856.03 1780.97 1830.22V1020C1780.97 995.113 1776.84 972.069 1768.56 950.868C1760.29 928.746 1748.7 909.39 1733.81 892.798C1719.74 876.206 1702.77 863.302 1682.91 854.084C1663.05 843.945 1641.54 838.875 1618.37 838.875H599.29V1201.12H1112.7V1020L1567.49 1402.99L1112.7 1803.95V1651.86H454.062C412.686 1651.86 380.413 1639.42 357.243 1614.53C334.9 1588.72 323.729 1552.77 323.729 1506.69V536.079C323.729 487.226 334.9 450.356 357.243 425.468C379.586 400.581 411.859 388.137 454.062 388.137H1766.08V28.6526H454.062C398.619 28.6526 348.968 36.4876 305.11 52.1574C261.252 67.8272 222.359 89.0276 188.431 115.758C155.331 141.568 126.782 171.525 102.784 205.63C78.786 239.735 59.3395 275.683 44.4443 313.475C29.5491 350.345 18.3777 388.137 10.9301 426.851C4.31006 464.643 1 500.13 1 533.313V1506.69C1 1568.44 8.03381 1624.21 22.1015 1673.99C36.1692 1722.84 54.7882 1766.16 77.9585 1803.95C101.956 1840.82 129.264 1872.62 159.882 1899.35C190.5 1925.16 222.359 1946.36 255.459 1962.96C289.387 1979.55 323.315 1991.99 357.243 2000.29C391.999 2007.66 424.271 2011.35 454.062 2011.35H1618.37C1641.54 2011.35 1663.05 2006.74 1682.91 1997.52C1702.77 1988.3 1719.74 1975.86 1733.81 1960.19C1748.7 1943.6 1760.29 1924.24 1768.56 1902.12Z" stroke="black"/>
<path fill-rule="evenodd" clip-rule="evenodd" d="M5646.67 2011.35H5323.94V1524.66H4189.43V2011.35H3866.7L3866.69 776.471H4150.68V582.861L4473.06 582.397V388.137H4756.68V28.6526H5484.07C5506.41 28.6526 5527.51 33.2614 5547.37 42.479C5567.23 51.6965 5584.61 64.6011 5599.5 81.1927C5614.4 97.7843 5625.98 117.141 5634.26 139.263C5642.53 161.385 5646.67 184.89 5646.67 209.777V2011.35ZM5323.94 388.137H5040.31V582.397H4756.68V776.657H4473.06V970.917H4189.43V1165.18H5323.94V388.137Z" stroke="black"/>
<path d="M6250.13 2011.35H6832.28V1937.1H6948.5V2011.35H7414.43V1651.86H6948.5V1733.3H6832.28V1651.86H6250.13C6208.75 1651.86 6176.48 1639.42 6153.31 1614.53C6130.96 1588.72 6119.79 1552.77 6119.79 1506.69V536.079C6119.79 487.226 6130.96 450.356 6153.31 425.468C6175.65 400.581 6207.92 388.137 6250.13 388.137H6832.28V313.475H6948.5V388.137H7414.43V28.6526H6948.5V115.758H6832.28V28.6526H6250.13C6194.68 28.6526 6145.03 36.4876 6101.17 52.1574C6057.32 67.8272 6018.42 89.0276 5984.49 115.758C5951.39 141.568 5922.85 171.525 5898.85 205.63C5874.85 239.735 5855.4 275.683 5840.51 313.475C5825.61 350.345 5814.44 388.137 5806.99 426.851C5800.37 464.643 5797.06 500.13 5797.06 533.313V1506.69C5797.06 1568.44 5804.1 1624.21 5818.17 1673.99C5832.23 1722.84 5850.85 1766.16 5874.02 1803.95C5898.02 1840.82 5925.33 1872.62 5955.95 1899.35C5986.56 1925.16 6018.42 1946.36 6051.52 1962.96C6085.45 1979.55 6119.38 1991.99 6153.31 2000.29C6188.06 2007.66 6220.34 2011.35 6250.13 2011.35Z" stroke="black"/>
<path d="M9275.2 408.612V28.6526H8952.47V838.875L8045 838.875V28.6526H7722.27V408.612H7479.72V1631.41H7722.27V2011.35H8045V1201.12L8952.47 1201.12V2011.35H9275.2V1631.41H9501V408.612H9275.2Z" stroke="black"/>
</svg>
