<svg width="1953" height="1949" viewBox="0 0 1953 1949" fill="none" xmlns="http://www.w3.org/2000/svg">
<path d="M1186.5 1135.5C1248 858.5 1528 747.5 1764.5 933" stroke-width="63"/>
<path d="M692.001 1151C793.502 926 1010.5 867 1239.31 1003" stroke-width="63"/>
<path d="M791.5 1309C1101.5 1458.5 1198 1003 1520 1450.5" stroke-width="63"/>
<path d="M1222 1704L1079 1491.9" stroke-width="63"/>
<path d="M1251 468L1272.5 517.5L1224.5 610.5M1154 417L1178 463.5L1127 579.5M1052 391.5L1086 446L1029 549.5M1029 549.5L963.498 534.999M1029 549.5L1127 579.5M1127 579.5L1224.5 610.5M1224.5 610.5L1300.5 636.5M500.999 1415.5C590.201 1408.26 589 1308 654.5 1289.5M500.999 1415.5C678 1638 1000 1625.5 1164 1406M500.999 1415.5C500.999 1415.5 422.5 1395.39 394.5 1389.5C339.24 1377.87 321.501 1306.5 316 1272.5C294.001 1174 390.313 958.299 500.999 821.5L796.498 430L1048 287.5L1246.5 294L1377.5 527.5L1300.5 636.5M1300.5 636.5L1300.5 711.499L1159.5 761.499L931.498 648.999L830.5 777.999M830.5 777.999L723.498 917.999M830.5 777.999L830.5 980.865" stroke-width="63"/>
<path d="M976.5 31.5C1498.47 31.5 1921.5 453.756 1921.5 974.5C1921.5 1495.24 1498.47 1917.5 976.5 1917.5C454.53 1917.5 31.5 1495.24 31.5 974.5C31.5 453.756 454.53 31.5 976.5 31.5Z" stroke-width="63"/>
</svg>
