<svg width="1953" height="1949" viewBox="0 0 1953 1949" fill="none" xmlns="http://www.w3.org/2000/svg">
<path d="M976.5 31.5C1498.47 31.5 1921.5 453.756 1921.5 974.5C1921.5 1495.24 1498.47 1917.5 976.5 1917.5C454.53 1917.5 31.5 1495.24 31.5 974.5C31.5 453.756 454.53 31.5 976.5 31.5Z"/>
<path d="M1189 1208.5C1063 1280.5 1053 1341 1049.5 1395C1046 1449 1096.15 1541.62 1206.5 1567C1301 1588.74 1422 1516 1409.5 1377.5L1616.5 1441L1644.75 1363.75L1673 1286.5L1189 1208.5ZM1189 1208.5C1096.2 1054.62 1051.03 814.206 1107.03 592.107M1189 1208.5C1202.75 973.514 1162.58 768.387 1302.53 653.107"/>
<path d="M1232.03 459.607L1256.03 506.107L1205.03 622.107M1329.03 510.607L1350.53 560.107L1302.53 653.107M958.5 1236C887 1223.5 533.501 1051.5 1009.52 691.608L1237.52 804.107L1378.53 754.106L1374 675.501M1130.03 1718C874.525 1746 600 1626.5 494.501 1528C263.384 1312.21 355.478 1087.39 494.501 875.998C633.525 664.608 874.525 472.607 874.525 472.607L1126.03 330.107L1324.53 336.607L1455.53 570.107L1374 675.501M1374 675.501L1302.53 653.107M1302.53 653.107L1205.03 622.107M1205.03 622.107L1107.03 592.107M1107.03 592.107L1041.53 577.607M1107.03 592.107L1164.03 488.607L1130.03 434.107"/>
</svg>
